<svg width="52" height="28" viewBox="0 0 52 28" fill="none" xmlns="http://www.w3.org/2000/svg">
<path d="M50.7144 0.339057C51.7898 1.03548 52.1408 2.57579 51.4979 3.77892C45.8336 14.3769 37.485 17.9635 30.6647 18.8656C29.2043 19.0586 27.8111 19.1286 26.5245 19.1219C27.8156 20.6 28.6519 22.547 28.4809 25.0669C28.3866 26.4542 27.2973 27.5096 26.048 27.4251C24.7987 27.3401 23.8611 26.1471 23.9552 24.7597C24.0411 23.4931 23.4369 22.3125 21.2984 21.2025C19.1621 20.0939 16.1222 19.4482 12.9553 19.1219C11.3942 18.9612 9.85175 18.8839 8.45023 18.8563C6.6302 18.9478 4.68702 19.0281 2.71078 19.097C2.56991 19.1019 2.43289 19.1074 2.31575 19.1055C2.26114 19.1045 2.17494 19.1033 2.08061 19.0944C2.03554 19.0901 1.94784 19.0799 1.84322 19.0587C1.81385 19.0531 1.4619 18.9901 1.09214 18.7464C0.92864 18.6385 0.325831 18.2152 0.089347 17.2972C-0.201329 16.1662 0.284275 15.2888 0.58904 14.9105C0.861419 14.5734 1.14853 14.4003 1.2451 14.3443C1.37399 14.2696 1.48692 14.2215 1.54774 14.1974C1.74689 14.119 1.92245 14.0829 1.95531 14.0763C2.08202 14.051 2.22002 14.0363 2.32792 14.0233C2.78694 13.9682 3.62004 13.9007 4.68247 13.8572C5.69671 13.8157 6.95932 13.7937 8.36555 13.8165C9.67539 13.7504 10.9176 13.689 12.0561 13.6089C14.8238 13.4143 16.8182 13.1845 17.7794 12.9422C22.6506 11.7134 24.8516 9.72723 25.8771 8.22689C26.9057 6.72097 26.9944 5.36461 27.0343 4.77585C27.1285 3.38834 28.2178 2.33201 29.4673 2.41664C30.7168 2.50146 31.6533 3.69536 31.5591 5.08298C31.498 5.98314 31.3199 8.53496 29.482 11.2269C28.8025 12.2217 27.9274 13.1881 26.8117 14.0839C27.8705 14.0814 29.0059 14.02 30.1878 13.8638C35.9817 13.0977 42.8524 10.1433 47.6021 1.25637C48.2453 0.0533302 49.6389 -0.357332 50.7144 0.339057Z" fill="black"/>
</svg>
