<svg width="52" height="28" viewBox="0 0 52 28" fill="none" xmlns="http://www.w3.org/2000/svg">
<path fill-rule="evenodd" clip-rule="evenodd" d="M1.10523 0.339103C0.0298072 1.03557 -0.321305 2.57582 0.321738 3.77897C5.98601 14.3769 14.3346 17.9626 21.1549 18.8646C22.6153 19.0577 24.0084 19.1286 25.2951 19.122C24.0041 20.5999 23.1677 22.5464 23.3386 25.066C23.4328 26.4535 24.5222 27.5098 25.7716 27.4252C27.021 27.3401 27.9585 26.1463 27.8644 24.7588C27.7786 23.4922 28.3826 22.3115 30.5212 21.2015C32.6575 20.093 35.6974 19.4482 38.8643 19.122C40.4254 18.9612 41.9678 18.8829 43.3693 18.8553C45.1892 18.9468 47.1318 19.0282 49.1078 19.0971C49.2489 19.102 49.3865 19.1065 49.5038 19.1045C49.5584 19.1036 49.6446 19.1024 49.7389 19.0935C49.784 19.0892 49.871 19.079 49.9753 19.0578C50.002 19.0527 50.356 18.9903 50.7274 18.7454C50.8914 18.6372 51.493 18.2145 51.7293 17.2973C52.0202 16.1661 51.5354 15.289 51.2306 14.9106C50.9581 14.5733 50.6711 14.4003 50.5745 14.3443C50.4455 14.2696 50.3326 14.2206 50.2718 14.1965C50.073 14.1182 49.8975 14.083 49.8643 14.0764C49.7376 14.0511 49.5996 14.0363 49.4917 14.0234C49.0327 13.9683 48.1996 13.9007 47.1371 13.8572C46.1229 13.8158 44.8602 13.7937 43.454 13.8165C42.1442 13.7504 40.902 13.689 39.7635 13.609C36.9958 13.4143 35.0014 13.1845 34.0402 12.9423C29.169 11.7135 26.9681 9.72728 25.9425 8.22693C24.914 6.72118 24.8252 5.3648 24.7853 4.7759C24.6911 3.38842 23.6017 2.33212 22.3523 2.41669C21.1028 2.50151 20.1654 3.69547 20.2595 5.08309C20.3207 5.98349 20.4997 8.53517 22.3376 11.227C23.0173 12.222 23.8928 13.1879 25.0089 14.0839C23.9498 14.0814 22.8141 14.0191 21.6317 13.8629C15.8378 13.0968 8.9672 10.1433 4.21747 1.25642C3.5744 0.0532203 2.18076 -0.357325 1.10523 0.339103Z" fill="black"/>
</svg>
