<svg width="208" height="72" viewBox="0 0 208 72" preserveAspectRatio="none" fill="none" xmlns="http://www.w3.org/2000/svg">
<path d="M0 64.5L15.5 51H1.5L19.5 40.5L1.5 38.5L9 34L1.5 29.5L12 26L1.5 16.5L15.5 18.5L9 4L24.5 15.5L22.5 4L39 18.5L35 4L47.5 16.5L48.5 4L55 15.5L61.5 4L64 15.5L70 4L72.5 15.5L75.5 10L79 17.5L82 4L86.5 13.5L93 1.5L91.5 17.5L105 4L100 17.5L114.5 4L107.5 20L130 4L123 20L145 4L137 17.5L176 1.5L161.5 17.5L190 0L181.5 17.5L202.5 10L185 26H206.5L192.5 34L208 43.5L192.5 40.5L208 60.5L188 51L200 69L188 59L192.5 72L176 54.5L177.5 70L164 53V70L153 54.5L154.5 70L146.5 60.5L139 70V54.5L135.5 70L128 59L123 70L117 59L112 69L105 60.5L100 69L96.5 59L89.5 69V59L80.5 70L79 56L68 69L70 56L56.5 69L61.5 56L43 69L51.5 54.5L28 69L30.5 59L14 69L19.5 59L0 64.5Z" fill="black"/>
</svg>
