<svg width="57" height="39" viewBox="0 0 57 39" fill="none" xmlns="http://www.w3.org/2000/svg">
<path d="M43.7368 28H26.7368V27H43.7368V28Z" fill="black"/>
<path d="M50.7368 23H26.7368V22H50.7368V23Z" fill="black"/>
<path d="M45.7368 19H26.7368V18H45.7368V19Z" fill="black"/>
<path d="M50.7368 15H26.7368V14H50.7368V15Z" fill="black"/>
<path d="M38.7368 11H26.7368V10H38.7368V11Z" fill="black"/>
<path fill-rule="evenodd" clip-rule="evenodd" d="M37.2368 0C48.0061 0.000263882 56.7368 8.73061 56.7368 19.5C56.7368 30.2694 48.0061 38.9997 37.2368 39C26.4673 39 17.7368 30.2696 17.7368 19.5C17.7368 18.4835 17.8144 17.4852 17.9644 16.5107C17.4112 16.4359 16.8605 16.2547 16.4077 16.0098C16.1061 15.8465 15.826 15.6438 15.6157 15.4053C15.4072 15.1687 15.2368 14.859 15.2368 14.499C15.237 14.2416 15.3116 13.8035 15.4116 13.333C15.4701 13.0578 15.5422 12.7549 15.6216 12.4424C7.26196 8.1493 10.1573 24.4465 6.73682 26.5C4.73681 29 -2.26321 25.5 0.736817 24.5C11.2363 31.4994 6.36438 15.398 11.2368 11.5C12.6276 10.3877 15.0215 10.7471 15.9048 11.4072C16.0397 10.9512 16.1841 10.5117 16.3257 10.1494C16.4113 9.93049 16.5001 9.72842 16.5894 9.56445C16.6339 9.48261 16.6837 9.40107 16.7378 9.3291C16.7881 9.26222 16.8625 9.17436 16.9644 9.1084L17.1333 8.99609C17.202 8.95141 17.2818 8.90345 17.3599 8.86621C17.5479 8.77678 17.7576 8.72569 18.0317 8.70996C18.5333 8.68136 19.3326 8.76858 20.7915 9.0166C24.2549 3.59495 30.3262 1.32301e-06 37.2368 0ZM37.2368 1C27.0196 1 18.7368 9.28273 18.7368 19.5C18.7368 29.7173 27.0196 38 37.2368 38C47.4539 37.9997 55.7368 29.7171 55.7368 19.5C55.7368 9.2829 47.4539 1.00026 37.2368 1ZM18.0884 9.70801C17.9162 9.71792 17.8382 9.74639 17.7896 9.76953C17.7146 9.80528 17.683 9.83347 17.5376 9.92871L17.5366 9.93066C17.5213 9.95111 17.4974 9.98766 17.4673 10.043C17.4065 10.1548 17.3354 10.3131 17.2573 10.5127C17.1015 10.9114 16.9347 11.4328 16.7808 11.9766C16.6273 12.5188 16.4892 13.0753 16.3901 13.541C16.2873 14.0248 16.2368 14.3637 16.2368 14.5C16.2368 14.5337 16.2544 14.6156 16.3667 14.7432C16.4773 14.8685 16.6517 15.0045 16.8833 15.1299C17.2473 15.3268 17.7008 15.4703 18.1421 15.5244C18.5541 13.5355 19.2704 11.6581 20.2378 9.94141C19.0268 9.74405 18.4267 9.68873 18.0884 9.70801Z" fill="black"/>
</svg>
