<svg width="17" height="12" viewBox="0 0 17 12" fill="none" xmlns="http://www.w3.org/2000/svg">
<path fill-rule="evenodd" clip-rule="evenodd" d="M10.8771 0.461914C13.7642 0.461986 16.1056 2.83822 16.1056 5.76953C16.1056 6.17307 16.0588 6.56562 15.9747 6.94336C15.7923 8.62108 14.5871 10.0276 12.9269 10.6523C12.2974 10.925 11.6046 11.0771 10.8771 11.0771C7.99017 11.0769 5.64968 8.7006 5.64952 5.76953C5.64952 5.49301 5.67089 5.22117 5.71104 4.95605C5.56276 4.93567 5.41446 4.88599 5.29308 4.81934C5.21231 4.77493 5.13748 4.71916 5.08116 4.6543C5.02539 4.58996 4.97966 4.50601 4.9796 4.4082C4.97965 4.33817 4.99968 4.21884 5.02647 4.09082C5.04214 4.01599 5.06186 3.93359 5.08312 3.84863C2.84219 2.6802 3.61789 7.11523 2.70128 7.6748C2.16515 8.35521 0.288229 7.40219 1.0919 7.12988C3.90671 9.03506 2.60109 4.6528 3.90733 3.5918C4.28006 3.28918 4.92132 3.38685 5.15831 3.56641C5.19449 3.44227 5.23363 3.32223 5.27159 3.22363C5.29448 3.16422 5.31803 3.10897 5.3419 3.06445C5.35381 3.04229 5.36751 3.02047 5.38194 3.00098C5.39544 2.98277 5.41519 2.95838 5.44249 2.94043L5.48839 2.91016C5.50674 2.89805 5.52811 2.88508 5.54894 2.875C5.59927 2.85071 5.65528 2.83632 5.72862 2.83203C5.86308 2.82425 6.07773 2.84851 6.46886 2.91602C7.39729 1.44042 9.02459 0.462077 10.8771 0.461914ZM10.8771 0.733398C9.38502 0.733551 8.07161 1.47171 7.18468 2.59277C8.27989 1.65725 9.87681 1.5 11.0001 1.5C13.285 1.50003 15.2109 3.22232 15.8077 5.22461C15.5402 2.69981 13.4349 0.733466 10.8771 0.733398ZM5.74425 3.10352C5.69815 3.10621 5.67722 3.1148 5.66417 3.12109C5.64413 3.1308 5.63554 3.13828 5.59679 3.16406C5.59268 3.16963 5.58533 3.18026 5.57726 3.19531C5.56098 3.22573 5.54246 3.26907 5.52159 3.32324C5.51937 3.32903 5.517 3.33485 5.51476 3.34082C5.61527 3.34676 5.76522 3.39734 6.00011 3.5L6.19347 3.41113C6.23376 3.32883 6.27613 3.24778 6.32042 3.16797C5.99606 3.1143 5.83498 3.09831 5.74425 3.10352Z" fill="black"/>
</svg>
