<svg width="17" height="12" viewBox="0 0 17 12" fill="none" xmlns="http://www.w3.org/2000/svg">
<ellipse cx="10.7368" cy="5.99999" rx="4.92105" ry="5.07692" fill="black"/>
<path fill-rule="evenodd" clip-rule="evenodd" d="M10.8775 0.461548C13.7646 0.46162 16.1052 2.83793 16.1052 5.76924C16.1052 8.70055 13.7646 11.0769 10.8775 11.0769C7.9903 11.0769 5.64976 8.7006 5.64976 5.76924C5.64976 5.49257 5.67057 5.22084 5.71076 4.9556C5.56247 4.93521 5.41483 4.88589 5.29345 4.81924C5.21258 4.77481 5.1375 4.71963 5.08112 4.6547C5.02523 4.59029 4.97954 4.50602 4.97954 4.40803C4.97959 4.33797 4.99959 4.21872 5.0264 4.09065C5.04209 4.01573 5.06141 3.93328 5.08269 3.84823C2.84157 2.6797 3.61777 7.11561 2.70078 7.67457C2.1646 8.35504 0.287973 7.40238 1.09225 7.13019C3.90705 9.03536 2.60094 4.65272 3.90718 3.59173C4.28003 3.28897 4.92181 3.3868 5.15862 3.56647C5.1948 3.44234 5.23349 3.32271 5.27145 3.22411C5.2944 3.16452 5.31821 3.10952 5.34214 3.06489C5.3541 3.04261 5.36743 3.02042 5.38194 3.00083C5.39543 2.98263 5.41538 2.95871 5.44267 2.94076L5.48797 2.91019C5.50639 2.89803 5.52777 2.88497 5.54871 2.87484C5.59911 2.85049 5.65533 2.83659 5.72883 2.83231C5.86329 2.82452 6.07756 2.84826 6.46869 2.91577C7.3972 1.44006 9.02484 0.461548 10.8775 0.461548ZM10.8775 0.733737C8.13836 0.733738 5.91785 2.98821 5.91785 5.76924C5.91785 8.55027 8.13836 10.8047 10.8775 10.8047C13.6166 10.8047 15.8372 8.55023 15.8372 5.76924C15.8372 2.98825 13.6166 0.733809 10.8775 0.733737ZM5.74401 3.10396C5.69786 3.10666 5.67695 3.11441 5.6639 3.12071C5.64381 3.13044 5.63534 3.13811 5.59635 3.16404C5.59225 3.1696 5.58558 3.18008 5.5775 3.19514C5.5612 3.22556 5.54214 3.26867 5.52122 3.32299C5.47943 3.43152 5.43472 3.57344 5.39346 3.72144C5.3523 3.86904 5.31528 4.02049 5.28873 4.14727C5.26116 4.27896 5.24763 4.37118 5.24763 4.40829C5.24763 4.41747 5.25234 4.43977 5.28245 4.47448C5.31209 4.50861 5.35885 4.54562 5.42094 4.57974C5.51853 4.63333 5.64011 4.67241 5.75841 4.68713C5.86886 4.14578 6.0609 3.63477 6.32025 3.16749C5.9956 3.11377 5.83471 3.09872 5.74401 3.10396Z" fill="black"/>
<rect width="1.82838" height="1.60926" rx="0.804628" transform="matrix(0.954918 0.29687 -0.282773 0.959187 5.50177 3.12479)" fill="black"/>
</svg>
