<svg width="63" height="81" viewBox="0 0 63 81" fill="none" xmlns="http://www.w3.org/2000/svg">
<path fill-rule="evenodd" clip-rule="evenodd" d="M34.7705 0C39.9567 6.75555e-05 44.621 0.763845 48.748 2.31055C52.8987 3.84241 56.2166 6.18247 58.6533 9.34766C61.1202 12.528 62.3223 16.4786 62.3223 21.1289C62.3222 24.1231 61.8026 26.8034 60.7334 29.1455C59.7034 31.4301 58.2584 33.4511 56.4062 35.2031C54.6069 36.9038 52.5088 38.448 50.1191 39.8379L50.1182 39.8369C48.453 40.8084 47.076 41.803 45.9746 42.8145L45.9668 42.8223C44.9008 43.7795 44.1075 44.8659 43.5732 46.084L43.5703 46.0898C43.0474 47.2612 42.7647 48.7325 42.7646 50.5361V53.249H42.5732L42.7021 53.5498L37.0869 55.9561C38.5938 56.4736 39.9819 57.3424 41.2412 58.5557C43.4526 60.6631 44.5948 63.2388 44.6211 66.2305V66.252C44.595 68.2828 44.0574 70.1507 43.0068 71.833L43.0078 71.834C41.9971 73.4664 40.6696 74.781 39.0342 75.7676L39.0234 75.7744C38.8975 75.8484 38.7693 75.917 38.6416 75.9854L38.6689 76.0625L38.084 76.2656C37.4625 76.5531 36.8215 76.7754 36.1621 76.9346L25.0801 80.7939L25.001 80.8223H24.916C22.0256 80.8222 19.533 79.8074 17.4648 77.7891L17.46 77.7852C15.4137 75.7386 14.398 73.2413 14.4229 70.3252C14.3999 67.4796 15.4189 65.0327 17.4629 63.0137L17.5098 62.9678L17.5674 62.9346L26.8691 57.6582C27.4007 57.2462 27.9555 56.8899 28.5342 56.5898H16.0049L15.9551 56.3389H15.708V54.626C15.708 50.6804 16.0179 47.5026 16.6523 45.1113C17.2848 42.7276 18.2303 40.7853 19.5059 39.3096C20.7531 37.8429 22.2762 36.5283 24.0703 35.3643C25.5839 34.371 26.9295 33.4151 28.1064 32.4971L28.1104 32.4941C29.2885 31.5932 30.1984 30.6454 30.8516 29.6543L30.8555 29.6475C31.5096 28.688 31.8398 27.5977 31.8398 26.3604C31.8398 25.2545 31.5753 24.3026 31.0605 23.4873C30.5387 22.661 29.8332 22.0194 28.9355 21.5596L29.3906 20.6689C30.4437 21.2083 31.2852 21.9713 31.9053 22.9531C32.5323 23.9459 32.8398 25.0873 32.8398 26.3604C32.8398 27.7848 32.4557 29.0705 31.6855 30.2031L31.6865 30.2041C30.9599 31.3066 29.9663 32.3343 28.7178 33.2891L28.7168 33.2881C27.5154 34.2249 26.1494 35.196 24.6191 36.2002L24.6172 36.2021C22.8925 37.3209 21.4431 38.5746 20.2646 39.9609L20.2627 39.9639C19.1115 41.2957 18.2239 43.0887 17.6191 45.3682C17.0164 47.6402 16.708 50.7201 16.708 54.626V55.2598L23.9199 52.29V50.5361C23.9199 46.5709 24.2307 43.3445 24.8809 40.8936C25.5271 38.4576 26.5011 36.4403 27.8389 34.8926C29.1212 33.3853 30.6828 32.0405 32.5127 30.8535C34.0153 29.8673 35.3476 28.92 36.5107 28.0127L36.5176 28.0068L37.126 28.8018L36.2021 29.5039C35.2474 30.2133 34.1988 30.9429 33.0566 31.6924C31.2961 32.8344 29.8091 34.1194 28.5957 35.5469C27.3824 36.9506 26.4662 38.8188 25.8477 41.1504L25.7354 41.5967C25.1917 43.876 24.9199 46.856 24.9199 50.5361V52.249H41.7646V50.5361C41.7647 48.7518 42.0261 47.218 42.5488 45.9355L42.6572 45.6826C43.1777 44.496 43.9165 43.4273 44.874 42.4775L45.2979 42.0781C46.4636 41.0075 47.9032 39.9719 49.6162 38.9727C51.6563 37.7861 53.469 36.4901 55.0537 35.085L55.7197 34.4766C57.4802 32.8112 58.8478 30.8954 59.8232 28.7305C60.7601 26.6784 61.2578 24.3226 61.3164 21.6641L61.3223 21.1289C61.3223 16.7961 60.2397 13.1656 58.0742 10.2393L57.8604 9.95801C55.6968 7.14764 52.7908 5.00631 49.1426 3.53418L48.4033 3.24805C44.6562 1.84287 40.4277 1.09668 35.7188 1.00879L34.7705 1C30.1548 1 25.9188 1.77284 22.0645 3.31934C20.5943 3.90017 19.2349 4.60914 17.9863 5.44629C18.0317 5.54018 18.0322 5.54003 18.0322 5.54004H18.0303C18.0292 5.54058 18.0276 5.54189 18.0254 5.54297C18.0207 5.54526 18.0134 5.54908 18.0039 5.55371C17.9848 5.56304 17.9563 5.57723 17.9189 5.5957C17.8438 5.63283 17.7326 5.68775 17.5898 5.75977C17.5278 5.79106 17.4604 5.82673 17.3867 5.86426C15.6173 7.14657 14.0839 8.70177 12.7861 10.5293L12.5703 10.8379C10.3809 14.0553 9.26294 18.1992 9.2168 23.2695H27.4893C27.4893 21.8899 27.8109 20.6766 28.4531 19.6299C29.1193 18.583 29.9879 17.7618 31.0586 17.167C32.1529 16.5723 33.3424 16.2745 34.627 16.2744C35.8165 16.2744 36.8996 16.5248 37.875 17.0244C38.8502 17.524 39.6234 18.226 40.1943 19.1299C40.7652 20.0339 41.0517 21.0811 41.0518 22.2705L41.0469 22.5186C41.005 23.7509 40.6496 24.8584 39.9805 25.8398L39.71 26.2295C39.049 27.1324 38.1876 27.9899 37.126 28.8018L36.5176 28.0068C37.6605 27.1328 38.529 26.2244 39.1455 25.2891L39.1504 25.2822L39.1543 25.2764C39.7488 24.4045 40.0517 23.4127 40.0518 22.2705C40.0517 21.2483 39.8083 20.3906 39.3496 19.6641C38.8768 18.9154 38.239 18.3342 37.4189 17.9141C36.5965 17.4929 35.6717 17.2744 34.627 17.2744C33.5037 17.2745 32.4792 17.5334 31.5361 18.0459C30.6215 18.5557 29.8807 19.2535 29.3057 20.1523L29.1172 20.4863C28.7054 21.2829 28.4893 22.2032 28.4893 23.2695V24.2695H28.0684L28.1719 24.5615L18.9443 27.8311L18.8633 27.8594H0L0.00488281 27.3555C0.0285835 24.7484 0.0611886 22.639 0.533203 20.6113C1.00935 18.5659 1.92517 16.6259 3.6748 14.3164C5.45483 11.9669 8.9684 9.54192 11.9717 7.72754C13.4849 6.81333 14.89 6.04267 15.916 5.5C16.2811 5.30689 16.5997 5.14433 16.8574 5.0127C18.3202 3.96037 19.9343 3.08612 21.6973 2.38965C25.6812 0.791937 30.0433 0 34.7705 0ZM18.1221 63.7695C16.2955 65.594 15.4004 67.77 15.4229 70.3252V70.333C15.4002 72.9819 16.3109 75.2189 18.1631 77.0732C20.0251 78.8904 22.2405 79.8017 24.835 79.8203L32.4375 77.1729C29.9149 76.9261 27.6996 75.8838 25.8271 74.0566L25.8184 74.0488C23.676 71.9064 22.6088 69.2795 22.6348 66.2305C22.6182 63.968 23.2335 61.9395 24.4668 60.1699L18.1221 63.7695ZM33.6279 56.3896C31.6088 56.3897 29.801 56.907 28.2021 57.9385L28.252 58.0244L27.4287 58.4902C27.1197 58.733 26.8182 58.9955 26.5264 59.2803L26.1719 59.6455C24.4584 61.4983 23.6125 63.6963 23.6348 66.2393C23.6111 69.0228 24.5755 71.3909 26.5264 73.3418C28.3776 75.1481 30.5741 76.1078 33.1152 76.2207L33.6279 76.2324C34.4074 76.2324 35.1606 76.1434 35.8887 75.9707L37.6973 75.3418C37.8779 75.2574 38.0573 75.1677 38.2344 75.0713L38.5176 74.9121C40.0163 74.0081 41.2294 72.8062 42.1572 71.3076C43.0495 69.88 43.5347 68.3053 43.6113 66.585L43.6211 66.2393C43.5973 63.5272 42.5738 61.2074 40.5518 59.2803C38.6782 57.4736 36.5324 56.5134 34.1152 56.4004L33.6279 56.3896ZM24.2158 53.249L18.5312 55.5898H31.0049V55.6816C31.8417 55.4882 32.7164 55.3897 33.6279 55.3896C34.2672 55.3897 34.8895 55.4444 35.4951 55.5488L40.8633 53.249H24.2158ZM9.18457 24.5566L3.19824 26.8594H18.6934L26 24.2695H9.07422L9.18457 24.5566ZM13.5967 7.92773C13.2371 8.13647 12.8667 8.35598 12.4893 8.58398C9.48027 10.4018 6.12377 12.7415 4.47266 14.9209C2.79126 17.1403 1.94645 18.9538 1.50781 20.8379C1.10737 22.5581 1.0416 24.3562 1.01465 26.6279L8.21094 23.8584L8.2168 23.2607C8.26569 17.8834 9.48964 13.4185 11.9727 9.94727C12.4792 9.23417 13.0215 8.56166 13.5967 7.92773Z" fill="black"/>
</svg>
