<svg width="16" height="15" viewBox="0 0 16 15" fill="none" xmlns="http://www.w3.org/2000/svg">
<path d="M7.37402 6.16016L9.10352 5.67773L7.98828 7.08496L8.98145 8.58008L7.29883 7.9541L6.18359 9.36133L6.25879 7.56738L4.5752 6.94141L6.30469 6.45801L6.38086 4.66406L7.37402 6.16016Z" fill="black"/>
<path fill-rule="evenodd" clip-rule="evenodd" d="M6.1543 0.599609H7.38477L9.8457 3.59961H16L12.3076 8.40039L14.7695 12L13.5381 11.4004L12.9229 12.5996L9.23047 11.4004L5.53809 15L4.92285 13.7998L3.69238 15V9.59961L0 7.7998L0.615234 7.2002L0 6L4.30762 4.7998L5.53809 0L6.1543 0.599609ZM5 5.5L1 6.5L5 9L4.78906 13.2812L7.5 10L12.5 12L10.4736 8.15039L13.5 5.5L8.5 5L6 1L5 5.5Z" fill="black"/>
</svg>
