<svg width="463" height="119" viewBox="0 0 463 119" fill="none" xmlns="http://www.w3.org/2000/svg">
<path d="M27.6395 88.3215C11.7826 88.3215 0 75.5478 0 59.5808C0 43.7238 11.7826 30.9502 27.6395 30.9502C36.5591 30.9502 43.2762 34.8043 48.0113 40.8608C50.1035 43.5036 49.2226 46.1464 46.1393 47.7982L41.184 50.3309C38.4311 51.7624 36.5591 50.9916 34.2466 48.8994C32.7049 47.4678 30.2824 46.1464 26.9788 46.1464C19.6009 46.1464 15.3064 52.4231 15.3064 59.9111C15.3064 67.289 20.4819 73.2354 26.9788 73.2354C30.2824 73.2354 32.9252 71.8039 34.5769 70.1521C36.7793 68.17 38.4311 67.1789 41.184 67.9497L45.8089 69.2711C49.0024 70.1521 50.7642 71.914 49.7732 74.1163C46.8 81.1639 38.5412 88.3215 27.6395 88.3215Z" fill="#671D8D"></path>
<path d="M84.209 88.4316C68.6824 88.4316 56.3493 76.3187 56.3493 59.4707C56.3493 42.6227 68.6824 30.5097 84.209 30.5097C99.8457 30.5097 112.069 42.6227 112.069 59.4707C112.069 76.3187 99.8457 88.4316 84.209 88.4316ZM84.209 73.2354C91.4768 73.2354 97.0928 66.8485 97.0928 59.5808C97.0928 52.4231 91.4768 46.0363 84.209 46.0363C76.9413 46.0363 71.3253 52.5332 71.3253 59.5808C71.3253 66.8485 77.0514 73.2354 84.209 73.2354Z" fill="#671D8D"></path>
<path d="M161.06 87.0001C157.867 87.0001 155.995 85.1281 155.995 81.9347L155.884 59.6909C155.884 49.2297 150.929 47.0274 146.414 47.0274C138.155 47.0274 135.403 53.3041 135.403 60.3516V81.9347C135.403 85.1281 133.531 87.0001 130.337 87.0001H123.73C120.537 87.0001 118.665 85.1281 118.665 81.9347V37.0067C118.665 33.8133 120.537 31.9412 123.73 31.9412H130.337C133.531 31.9412 135.403 33.8133 135.403 37.0067C135.403 37.337 136.724 36.2358 138.706 34.8043C141.789 32.7121 145.423 31.3907 149.277 31.3907C162.051 31.3907 172.622 41.7417 172.622 57.0481L172.732 81.9347C172.732 85.2382 170.971 87.0001 167.667 87.0001H161.06Z" fill="#671D8D"></path>
<path d="M205.8 88.2114C190.603 88.2114 179.371 76.9794 179.371 59.6909C179.371 42.4024 190.603 30.9502 205.8 30.9502C210.755 30.9502 215.16 32.2716 219.014 34.5841C220.996 35.9055 222.317 35.2448 222.317 32.9323V15.0932C222.317 11.7897 224.189 10.0278 227.383 10.0278H234.32C237.624 10.0278 239.385 11.8998 239.385 15.0932V81.9347C239.385 85.2382 237.513 87.0001 234.32 87.0001H227.383C225.07 87.0001 223.529 86.2293 222.868 84.6876C222.097 83.0359 221.767 82.7055 220.555 83.5864C216.481 86.4495 211.416 88.2114 205.8 88.2114ZM208.222 74.2264C216.041 74.2264 222.207 67.8396 222.207 59.9111C222.207 51.8725 216.041 45.706 208.222 45.706C200.404 45.706 194.678 51.8725 194.678 59.9111C194.678 67.8396 200.514 74.2264 208.222 74.2264Z" fill="#671D8D"></path>
<path d="M259.919 31.9412C263.112 31.9412 264.984 33.8133 264.984 37.0067L265.094 59.4707C265.094 69.161 269.499 72.1342 274.454 72.1342C282.273 72.1342 285.356 66.298 285.356 58.81V37.0067C285.356 33.8133 287.228 31.9412 290.422 31.9412H297.029C300.222 31.9412 302.094 33.8133 302.094 37.0067V81.9347C302.094 85.1281 300.222 87.0001 297.029 87.0001H290.422C287.228 87.0001 285.356 85.1281 285.356 81.9347C285.356 81.3841 284.035 82.265 282.053 83.6966C278.969 85.8989 275.335 87.1102 271.371 87.2203C258.928 87.4406 248.357 77.4198 248.357 62.1135L248.246 37.0067C248.246 33.7031 250.008 31.9412 253.312 31.9412H259.919Z" fill="#671D8D"></path>
<path d="M390.162 88.4316C374.636 88.4316 362.302 76.3187 362.302 59.4707C362.302 42.6227 374.636 30.5097 390.162 30.5097C405.799 30.5097 418.022 42.6227 418.022 59.4707C418.022 76.3187 405.799 88.4316 390.162 88.4316ZM390.162 73.2354C397.43 73.2354 403.046 66.8485 403.046 59.5808C403.046 52.4231 397.43 46.0363 390.162 46.0363C382.894 46.0363 377.278 52.5332 377.278 59.5808C377.278 66.8485 383.004 73.2354 390.162 73.2354Z" fill="#671D8D"></path>
<path d="M429.683 87.0001C426.38 87.0001 424.618 85.1281 424.618 81.9347V37.0067C424.618 33.8133 426.49 31.9412 429.683 31.9412H436.29C439.484 31.9412 441.356 33.8133 441.356 37.0067C441.356 37.6674 442.677 36.7864 444.659 35.3549C447.853 33.1525 451.487 31.9412 455.451 31.9412C456.442 31.9412 457.653 32.0514 458.864 32.1615C462.278 32.7121 463.159 35.465 461.838 38.6584L458.974 45.1554C457.763 48.0184 456.442 48.8994 454.79 48.3488C454.019 48.1285 453.138 48.0184 452.257 48.0184C444.329 48.0184 441.356 55.9469 441.356 64.7563V81.9347C441.356 85.2382 439.484 87.0001 436.29 87.0001H429.683Z" fill="#671D8D"></path>
<path d="M317.855 2.3778C319.821 -0.0306697 321.336 -0.505456 322.767 0.486203C333.829 7.46044 340.797 12.4997 342.69 27.4803L342.789 31.9999H356.151C357.933 32 358.825 34.154 357.565 35.4139L336.39 56.5887C335.609 57.3695 334.343 57.3697 333.562 56.5887L312.387 35.4139C311.128 34.1541 312.02 32.0001 313.801 31.9999H326.542L326.453 30.0262C326.453 22.8374 320.604 17.3547 314.317 14.8807C311.195 13.3949 311.122 10.506 313.286 7.8114L317.855 2.3778Z" fill="#AF52DE"></path>
<path d="M352.097 115.797C350.132 118.205 348.616 118.68 347.185 117.688C336.124 110.714 329.155 105.675 327.262 90.694L327.164 86.1745L313.801 86.1745C312.02 86.1744 311.128 84.0204 312.387 82.7604L333.562 61.5856C334.343 60.8049 335.609 60.8047 336.39 61.5856L357.565 82.7604C358.825 84.0203 357.933 86.1743 356.151 86.1745L343.411 86.1745L343.5 88.1481C343.5 95.337 349.348 100.82 355.635 103.294C358.757 104.779 358.83 107.668 356.667 110.363L352.097 115.797Z" fill="#AF52DE"></path>
</svg>